<mxfile host="app.diagrams.net" agent="Mozilla/5.0 (Windows NT 10.0; Win64; x64) AppleWebKit/537.36 (KHTML, like Gecko) Chrome/131.0.0.0 Safari/537.36 Edg/131.0.0.0" version="24.9.1">
  <diagram name="第 1 页" id="El4ox8ni36USgXG2tI2V">
    <mxGraphModel dx="1042" dy="565" grid="1" gridSize="10" guides="1" tooltips="1" connect="1" arrows="1" fold="1" page="1" pageScale="1" pageWidth="827" pageHeight="1169" math="0" shadow="0">
      <root>
        <mxCell id="0" />
        <mxCell id="1" parent="0" />
        <mxCell id="rUDsLR25-DEcQ4q1slk1-1" value="SDK" style="shape=umlActor;verticalLabelPosition=bottom;verticalAlign=top;html=1;outlineConnect=0;" vertex="1" parent="1">
          <mxGeometry x="70" y="60" width="30" height="60" as="geometry" />
        </mxCell>
        <mxCell id="rUDsLR25-DEcQ4q1slk1-2" value="Config" style="rounded=0;whiteSpace=wrap;html=1;" vertex="1" parent="1">
          <mxGeometry x="130" y="65" width="60" height="50" as="geometry" />
        </mxCell>
        <mxCell id="rUDsLR25-DEcQ4q1slk1-15" value="Collector" style="rounded=0;whiteSpace=wrap;html=1;" vertex="1" parent="1">
          <mxGeometry x="220" y="65" width="50" height="50" as="geometry" />
        </mxCell>
        <mxCell id="rUDsLR25-DEcQ4q1slk1-16" value="Consumer" style="rounded=0;whiteSpace=wrap;html=1;" vertex="1" parent="1">
          <mxGeometry x="300" y="65" width="60" height="50" as="geometry" />
        </mxCell>
        <mxCell id="rUDsLR25-DEcQ4q1slk1-17" value="HBase" style="rounded=0;whiteSpace=wrap;html=1;" vertex="1" parent="1">
          <mxGeometry x="389" y="65" width="50" height="50" as="geometry" />
        </mxCell>
        <mxCell id="rUDsLR25-DEcQ4q1slk1-18" value="ES" style="rounded=0;whiteSpace=wrap;html=1;" vertex="1" parent="1">
          <mxGeometry x="480" y="65" width="50" height="50" as="geometry" />
        </mxCell>
        <mxCell id="rUDsLR25-DEcQ4q1slk1-19" value="Topology" style="rounded=0;whiteSpace=wrap;html=1;" vertex="1" parent="1">
          <mxGeometry x="580" y="65" width="50" height="50" as="geometry" />
        </mxCell>
        <mxCell id="rUDsLR25-DEcQ4q1slk1-20" value="Mysql" style="rounded=0;whiteSpace=wrap;html=1;" vertex="1" parent="1">
          <mxGeometry x="680" y="65" width="50" height="50" as="geometry" />
        </mxCell>
        <mxCell id="rUDsLR25-DEcQ4q1slk1-21" value="Redis" style="rounded=0;whiteSpace=wrap;html=1;" vertex="1" parent="1">
          <mxGeometry x="770" y="65" width="50" height="50" as="geometry" />
        </mxCell>
        <mxCell id="rUDsLR25-DEcQ4q1slk1-22" value="" style="endArrow=none;html=1;rounded=0;dashed=1;" edge="1" parent="1">
          <mxGeometry width="50" height="50" relative="1" as="geometry">
            <mxPoint x="160" y="600" as="sourcePoint" />
            <mxPoint x="159.75" y="120" as="targetPoint" />
          </mxGeometry>
        </mxCell>
        <mxCell id="rUDsLR25-DEcQ4q1slk1-23" value="" style="endArrow=none;html=1;rounded=0;dashed=1;" edge="1" parent="1">
          <mxGeometry width="50" height="50" relative="1" as="geometry">
            <mxPoint x="245" y="600" as="sourcePoint" />
            <mxPoint x="244.75" y="110" as="targetPoint" />
          </mxGeometry>
        </mxCell>
        <mxCell id="rUDsLR25-DEcQ4q1slk1-24" value="" style="endArrow=none;html=1;rounded=0;dashed=1;" edge="1" parent="1">
          <mxGeometry width="50" height="50" relative="1" as="geometry">
            <mxPoint x="330" y="600" as="sourcePoint" />
            <mxPoint x="329.75" y="115" as="targetPoint" />
          </mxGeometry>
        </mxCell>
        <mxCell id="rUDsLR25-DEcQ4q1slk1-25" value="" style="endArrow=none;html=1;rounded=0;dashed=1;" edge="1" parent="1">
          <mxGeometry width="50" height="50" relative="1" as="geometry">
            <mxPoint x="413" y="600" as="sourcePoint" />
            <mxPoint x="413.25" y="115" as="targetPoint" />
          </mxGeometry>
        </mxCell>
        <mxCell id="rUDsLR25-DEcQ4q1slk1-26" value="" style="endArrow=none;html=1;rounded=0;dashed=1;" edge="1" parent="1">
          <mxGeometry width="50" height="50" relative="1" as="geometry">
            <mxPoint x="505" y="600" as="sourcePoint" />
            <mxPoint x="504.75" y="115" as="targetPoint" />
          </mxGeometry>
        </mxCell>
        <mxCell id="rUDsLR25-DEcQ4q1slk1-27" value="" style="endArrow=none;html=1;rounded=0;dashed=1;" edge="1" parent="1">
          <mxGeometry width="50" height="50" relative="1" as="geometry">
            <mxPoint x="605" y="600" as="sourcePoint" />
            <mxPoint x="604.75" y="115" as="targetPoint" />
          </mxGeometry>
        </mxCell>
        <mxCell id="rUDsLR25-DEcQ4q1slk1-28" value="" style="endArrow=none;html=1;rounded=0;dashed=1;" edge="1" parent="1">
          <mxGeometry width="50" height="50" relative="1" as="geometry">
            <mxPoint x="705" y="600" as="sourcePoint" />
            <mxPoint x="704.75" y="115" as="targetPoint" />
          </mxGeometry>
        </mxCell>
        <mxCell id="rUDsLR25-DEcQ4q1slk1-29" value="" style="endArrow=none;html=1;rounded=0;dashed=1;" edge="1" parent="1">
          <mxGeometry width="50" height="50" relative="1" as="geometry">
            <mxPoint x="795" y="600" as="sourcePoint" />
            <mxPoint x="794.75" y="115" as="targetPoint" />
          </mxGeometry>
        </mxCell>
        <mxCell id="rUDsLR25-DEcQ4q1slk1-30" value="loop" style="shape=umlFrame;whiteSpace=wrap;html=1;pointerEvents=0;" vertex="1" parent="1">
          <mxGeometry y="160" width="370" height="150" as="geometry" />
        </mxCell>
        <mxCell id="rUDsLR25-DEcQ4q1slk1-32" value="" style="endArrow=none;html=1;rounded=0;dashed=1;" edge="1" parent="1" source="rUDsLR25-DEcQ4q1slk1-34">
          <mxGeometry width="50" height="50" relative="1" as="geometry">
            <mxPoint x="84.5" y="495" as="sourcePoint" />
            <mxPoint x="84.75" y="140" as="targetPoint" />
          </mxGeometry>
        </mxCell>
        <mxCell id="rUDsLR25-DEcQ4q1slk1-33" value="" style="endArrow=none;html=1;rounded=0;dashed=1;" edge="1" parent="1" target="rUDsLR25-DEcQ4q1slk1-34">
          <mxGeometry width="50" height="50" relative="1" as="geometry">
            <mxPoint x="80" y="600.800048828125" as="sourcePoint" />
            <mxPoint x="84.75" y="140" as="targetPoint" />
          </mxGeometry>
        </mxCell>
        <mxCell id="rUDsLR25-DEcQ4q1slk1-34" value="" style="html=1;points=[[0,0,0,0,5],[0,1,0,0,-5],[1,0,0,0,5],[1,1,0,0,-5]];perimeter=orthogonalPerimeter;outlineConnect=0;targetShapes=umlLifeline;portConstraint=eastwest;newEdgeStyle={&quot;curved&quot;:0,&quot;rounded&quot;:0};" vertex="1" parent="1">
          <mxGeometry x="85" y="180" width="10" height="80" as="geometry" />
        </mxCell>
        <mxCell id="rUDsLR25-DEcQ4q1slk1-35" value="" style="html=1;points=[[0,0,0,0,5],[0,1,0,0,-5],[1,0,0,0,5],[1,1,0,0,-5]];perimeter=orthogonalPerimeter;outlineConnect=0;targetShapes=umlLifeline;portConstraint=eastwest;newEdgeStyle={&quot;curved&quot;:0,&quot;rounded&quot;:0};" vertex="1" parent="1">
          <mxGeometry x="155" y="195" width="10" height="50" as="geometry" />
        </mxCell>
        <mxCell id="rUDsLR25-DEcQ4q1slk1-36" value="loop" style="shape=umlFrame;whiteSpace=wrap;html=1;pointerEvents=0;" vertex="1" parent="1">
          <mxGeometry y="350" width="810" height="240" as="geometry" />
        </mxCell>
        <mxCell id="rUDsLR25-DEcQ4q1slk1-37" value="" style="html=1;points=[[0,0,0,0,5],[0,1,0,0,-5],[1,0,0,0,5],[1,1,0,0,-5]];perimeter=orthogonalPerimeter;outlineConnect=0;targetShapes=umlLifeline;portConstraint=eastwest;newEdgeStyle={&quot;curved&quot;:0,&quot;rounded&quot;:0};" vertex="1" parent="1">
          <mxGeometry x="80" y="340" width="10" height="190" as="geometry" />
        </mxCell>
        <mxCell id="rUDsLR25-DEcQ4q1slk1-38" value="" style="html=1;points=[[0,0,0,0,5],[0,1,0,0,-5],[1,0,0,0,5],[1,1,0,0,-5]];perimeter=orthogonalPerimeter;outlineConnect=0;targetShapes=umlLifeline;portConstraint=eastwest;newEdgeStyle={&quot;curved&quot;:0,&quot;rounded&quot;:0};" vertex="1" parent="1">
          <mxGeometry x="240" y="380" width="10" height="180" as="geometry" />
        </mxCell>
        <mxCell id="rUDsLR25-DEcQ4q1slk1-39" value="" style="html=1;points=[[0,0,0,0,5],[0,1,0,0,-5],[1,0,0,0,5],[1,1,0,0,-5]];perimeter=orthogonalPerimeter;outlineConnect=0;targetShapes=umlLifeline;portConstraint=eastwest;newEdgeStyle={&quot;curved&quot;:0,&quot;rounded&quot;:0};" vertex="1" parent="1">
          <mxGeometry x="325" y="380" width="10" height="140" as="geometry" />
        </mxCell>
        <mxCell id="rUDsLR25-DEcQ4q1slk1-40" value="" style="html=1;points=[[0,0,0,0,5],[0,1,0,0,-5],[1,0,0,0,5],[1,1,0,0,-5]];perimeter=orthogonalPerimeter;outlineConnect=0;targetShapes=umlLifeline;portConstraint=eastwest;newEdgeStyle={&quot;curved&quot;:0,&quot;rounded&quot;:0};" vertex="1" parent="1">
          <mxGeometry x="404" y="390" width="10" height="40" as="geometry" />
        </mxCell>
        <mxCell id="rUDsLR25-DEcQ4q1slk1-41" value="" style="html=1;points=[[0,0,0,0,5],[0,1,0,0,-5],[1,0,0,0,5],[1,1,0,0,-5]];perimeter=orthogonalPerimeter;outlineConnect=0;targetShapes=umlLifeline;portConstraint=eastwest;newEdgeStyle={&quot;curved&quot;:0,&quot;rounded&quot;:0};" vertex="1" parent="1">
          <mxGeometry x="500" y="430" width="10" height="40" as="geometry" />
        </mxCell>
        <mxCell id="rUDsLR25-DEcQ4q1slk1-42" value="" style="html=1;points=[[0,0,0,0,5],[0,1,0,0,-5],[1,0,0,0,5],[1,1,0,0,-5]];perimeter=orthogonalPerimeter;outlineConnect=0;targetShapes=umlLifeline;portConstraint=eastwest;newEdgeStyle={&quot;curved&quot;:0,&quot;rounded&quot;:0};" vertex="1" parent="1">
          <mxGeometry x="600" y="450" width="10" height="100" as="geometry" />
        </mxCell>
        <mxCell id="rUDsLR25-DEcQ4q1slk1-43" value="" style="html=1;points=[[0,0,0,0,5],[0,1,0,0,-5],[1,0,0,0,5],[1,1,0,0,-5]];perimeter=orthogonalPerimeter;outlineConnect=0;targetShapes=umlLifeline;portConstraint=eastwest;newEdgeStyle={&quot;curved&quot;:0,&quot;rounded&quot;:0};" vertex="1" parent="1">
          <mxGeometry x="700" y="460" width="10" height="40" as="geometry" />
        </mxCell>
        <mxCell id="rUDsLR25-DEcQ4q1slk1-44" value="" style="html=1;points=[[0,0,0,0,5],[0,1,0,0,-5],[1,0,0,0,5],[1,1,0,0,-5]];perimeter=orthogonalPerimeter;outlineConnect=0;targetShapes=umlLifeline;portConstraint=eastwest;newEdgeStyle={&quot;curved&quot;:0,&quot;rounded&quot;:0};" vertex="1" parent="1">
          <mxGeometry x="790" y="510" width="10" height="50" as="geometry" />
        </mxCell>
        <mxCell id="rUDsLR25-DEcQ4q1slk1-46" value="统计信息" style="html=1;verticalAlign=bottom;startArrow=oval;startFill=1;endArrow=block;startSize=8;curved=0;rounded=0;" edge="1" parent="1">
          <mxGeometry width="60" relative="1" as="geometry">
            <mxPoint x="100" y="195" as="sourcePoint" />
            <mxPoint x="160" y="195" as="targetPoint" />
          </mxGeometry>
        </mxCell>
        <mxCell id="rUDsLR25-DEcQ4q1slk1-47" value="配置下发" style="html=1;verticalAlign=bottom;endArrow=open;dashed=1;endSize=8;curved=0;rounded=0;" edge="1" parent="1">
          <mxGeometry relative="1" as="geometry">
            <mxPoint x="160" y="245" as="sourcePoint" />
            <mxPoint x="95" y="245" as="targetPoint" />
          </mxGeometry>
        </mxCell>
        <mxCell id="rUDsLR25-DEcQ4q1slk1-48" value="上报" style="html=1;verticalAlign=bottom;startArrow=oval;startFill=1;endArrow=block;startSize=8;curved=0;rounded=0;" edge="1" parent="1" source="rUDsLR25-DEcQ4q1slk1-37">
          <mxGeometry width="60" relative="1" as="geometry">
            <mxPoint x="180" y="380" as="sourcePoint" />
            <mxPoint x="240" y="380" as="targetPoint" />
          </mxGeometry>
        </mxCell>
        <mxCell id="rUDsLR25-DEcQ4q1slk1-51" value="发送" style="html=1;verticalAlign=bottom;startArrow=oval;startFill=1;endArrow=block;startSize=8;curved=0;rounded=0;" edge="1" parent="1" target="rUDsLR25-DEcQ4q1slk1-39">
          <mxGeometry width="60" relative="1" as="geometry">
            <mxPoint x="250" y="390" as="sourcePoint" />
            <mxPoint x="310" y="390" as="targetPoint" />
          </mxGeometry>
        </mxCell>
        <mxCell id="rUDsLR25-DEcQ4q1slk1-52" value="存储" style="html=1;verticalAlign=bottom;startArrow=oval;startFill=1;endArrow=block;startSize=8;curved=0;rounded=0;" edge="1" parent="1">
          <mxGeometry width="60" relative="1" as="geometry">
            <mxPoint x="340" y="400" as="sourcePoint" />
            <mxPoint x="400" y="400" as="targetPoint" />
            <mxPoint as="offset" />
          </mxGeometry>
        </mxCell>
        <mxCell id="rUDsLR25-DEcQ4q1slk1-53" value="倒排索引" style="html=1;verticalAlign=bottom;startArrow=oval;startFill=1;endArrow=block;startSize=8;curved=0;rounded=0;" edge="1" parent="1" source="rUDsLR25-DEcQ4q1slk1-39">
          <mxGeometry x="-0.5758" width="60" relative="1" as="geometry">
            <mxPoint x="440" y="440" as="sourcePoint" />
            <mxPoint x="500" y="440" as="targetPoint" />
            <mxPoint as="offset" />
          </mxGeometry>
        </mxCell>
        <mxCell id="rUDsLR25-DEcQ4q1slk1-54" value="发送" style="html=1;verticalAlign=bottom;startArrow=oval;startFill=1;endArrow=block;startSize=8;curved=0;rounded=0;" edge="1" parent="1" target="rUDsLR25-DEcQ4q1slk1-42">
          <mxGeometry width="60" relative="1" as="geometry">
            <mxPoint x="340" y="500" as="sourcePoint" />
            <mxPoint x="400" y="500" as="targetPoint" />
          </mxGeometry>
        </mxCell>
        <mxCell id="rUDsLR25-DEcQ4q1slk1-55" value="方法元数据" style="html=1;verticalAlign=bottom;startArrow=oval;startFill=1;endArrow=block;startSize=8;curved=0;rounded=0;" edge="1" parent="1" target="rUDsLR25-DEcQ4q1slk1-43">
          <mxGeometry width="60" relative="1" as="geometry">
            <mxPoint x="610" y="480" as="sourcePoint" />
            <mxPoint x="670" y="480" as="targetPoint" />
          </mxGeometry>
        </mxCell>
        <mxCell id="rUDsLR25-DEcQ4q1slk1-56" value="拓扑关系" style="html=1;verticalAlign=bottom;startArrow=oval;startFill=1;endArrow=block;startSize=8;curved=0;rounded=0;" edge="1" parent="1" target="rUDsLR25-DEcQ4q1slk1-44">
          <mxGeometry x="-0.4444" width="60" relative="1" as="geometry">
            <mxPoint x="610" y="530" as="sourcePoint" />
            <mxPoint x="670" y="530" as="targetPoint" />
            <mxPoint as="offset" />
          </mxGeometry>
        </mxCell>
      </root>
    </mxGraphModel>
  </diagram>
</mxfile>
